# xmcd
#
# Track frame offsets:
#	150
#	15203
#	32073
#	46211
#	63320
#	79615
#	92293
#	109185
#	123967
#	143016
#	163623
#	177022
#
# Disc length: 2574 seconds
#
# Revision: 0
# Processed by: cddbd v1.5.2PL0 Copyright (c) Steve Scherf et al.
# Submitted via: EasyCDDAExtractor 8.2.3.1
#
DISCID=820a0c0c
DTITLE=Dale Watson - One More Once More
DYEAR=2003
DGENRE=country
TTITLE0=Once More
TTITLE1=You Win Again
TTITLE2=You've Got Me Now
TTITLE3=Do You
TTITLE4=So Glad You're Mine
TTITLE5=Cupid
TTITLE6=6 Days
TTITLE7=Monterrey
TTITLE8=San Antone
TTITLE9=Deep In The Heart
TTITLE10=Wagon
TTITLE11=Danced All Night
EXTD=
EXTT0=
EXTT1=
EXTT2=
EXTT3=
EXTT4=
EXTT5=
EXTT6=
EXTT7=
EXTT8=
EXTT9=
EXTT10=
EXTT11=
PLAYORDER=
